<svg width="512" height="512" viewBox="0 0 512 512" fill="none" xmlns="http://www.w3.org/2000/svg">
<path d="M256 512C397.385 512 512 397.385 512 256C512 114.615 397.385 0 256 0C114.615 0 0 114.615 0 256C0 397.385 114.615 512 256 512Z" fill="#C8C8C8"/>
<path d="M313.292 174.143C332.707 174.143 348.315 180.154 360.117 192.177C372.108 204.009 378.104 220.612 378.104 241.985V335.018H338.132V247.424C338.132 235.02 334.991 225.574 328.71 219.085C322.428 212.406 313.863 209.066 303.013 209.066C292.163 209.066 283.503 212.406 277.031 219.085C270.75 225.574 267.609 235.02 267.609 247.424V335.018H227.637V247.424C227.637 235.02 224.496 225.574 218.214 219.085C211.933 212.406 203.368 209.066 192.518 209.066C181.478 209.066 172.722 212.406 166.25 219.085C159.969 225.574 156.828 235.02 156.828 247.424V335.018H116.856V176.433H156.828V195.612C161.968 188.933 168.534 183.685 176.529 179.868C184.714 176.051 193.66 174.143 203.368 174.143C215.74 174.143 226.78 176.815 236.488 182.158C246.195 187.311 253.714 194.753 259.043 204.486C264.183 195.326 271.606 187.979 281.314 182.445C291.212 176.91 301.871 174.143 313.292 174.143ZM433.738 337.022C426.505 337.022 420.509 334.827 415.751 330.438C411.182 325.858 408.898 320.228 408.898 313.549C408.898 306.87 411.182 301.336 415.751 296.946C420.509 292.366 426.505 290.076 433.738 290.076C440.781 290.076 446.587 292.366 451.155 296.946C455.723 301.336 458.007 306.87 458.007 313.549C458.007 320.228 455.723 325.858 451.155 330.438C446.587 334.827 440.781 337.022 433.738 337.022Z" fill="black"/>
</svg>
