<svg width="334" height="77" viewBox="0 0 334 77" fill="none" xmlns="http://www.w3.org/2000/svg">
<path d="M66.672 22.048C73.2 22.048 78.448 24.064 82.416 28.096C86.448 32.064 88.464 37.632 88.464 44.8V76H75.024V46.624C75.024 42.464 73.968 39.296 71.856 37.12C69.744 34.88 66.864 33.76 63.216 33.76C59.568 33.76 56.656 34.88 54.48 37.12C52.368 39.296 51.312 42.464 51.312 46.624V76H37.872V46.624C37.872 42.464 36.816 39.296 34.704 37.12C32.592 34.88 29.712 33.76 26.064 33.76C22.352 33.76 19.408 34.88 17.232 37.12C15.12 39.296 14.064 42.464 14.064 46.624V76H0.623993V22.816H14.064V29.248C15.792 27.008 18 25.248 20.688 23.968C23.44 22.688 26.448 22.048 29.712 22.048C33.872 22.048 37.584 22.944 40.848 24.736C44.112 26.464 46.64 28.96 48.432 32.224C50.16 29.152 52.656 26.688 55.92 24.832C59.248 22.976 62.832 22.048 66.672 22.048ZM97.7617 49.216C97.7617 43.84 98.8177 39.072 100.93 34.912C103.106 30.752 106.018 27.552 109.666 25.312C113.378 23.072 117.506 21.952 122.05 21.952C126.018 21.952 129.474 22.752 132.418 24.352C135.426 25.952 137.826 27.968 139.618 30.4V22.816H153.154V76H139.618V68.224C137.89 70.72 135.49 72.8 132.418 74.464C129.41 76.064 125.922 76.864 121.954 76.864C117.474 76.864 113.378 75.712 109.666 73.408C106.018 71.104 103.106 67.872 100.93 63.712C98.8177 59.488 97.7617 54.656 97.7617 49.216ZM139.618 49.408C139.618 46.144 138.978 43.36 137.698 41.056C136.418 38.688 134.69 36.896 132.514 35.68C130.338 34.4 128.002 33.76 125.506 33.76C123.01 33.76 120.706 34.368 118.594 35.584C116.482 36.8 114.754 38.592 113.41 40.96C112.13 43.264 111.49 46.016 111.49 49.216C111.49 52.416 112.13 55.232 113.41 57.664C114.754 60.032 116.482 61.856 118.594 63.136C120.77 64.416 123.074 65.056 125.506 65.056C128.002 65.056 130.338 64.448 132.514 63.232C134.69 61.952 136.418 60.16 137.698 57.856C138.978 55.488 139.618 52.672 139.618 49.408ZM181.928 33.856V59.584C181.928 61.376 182.344 62.688 183.176 63.52C184.072 64.288 185.544 64.672 187.592 64.672H193.832V76H185.384C174.056 76 168.392 70.496 168.392 59.488V33.856H162.056V22.816H168.392V9.664H181.928V22.816H193.832V33.856H181.928ZM219.147 33.856V59.584C219.147 61.376 219.563 62.688 220.395 63.52C221.291 64.288 222.763 64.672 224.811 64.672H231.051V76H222.603C211.275 76 205.611 70.496 205.611 59.488V33.856H199.275V22.816H205.611V9.664H219.147V22.816H231.051V33.856H219.147ZM247.534 16.48C245.166 16.48 243.182 15.744 241.582 14.272C240.046 12.736 239.278 10.848 239.278 8.608C239.278 6.368 240.046 4.512 241.582 3.04C243.182 1.504 245.166 0.735992 247.534 0.735992C249.902 0.735992 251.854 1.504 253.39 3.04C254.99 4.512 255.79 6.368 255.79 8.608C255.79 10.848 254.99 12.736 253.39 14.272C251.854 15.744 249.902 16.48 247.534 16.48ZM254.158 22.816V76H240.718V22.816H254.158ZM287.789 76.864C283.437 76.864 279.533 76.096 276.077 74.56C272.621 72.96 269.869 70.816 267.821 68.128C265.837 65.44 264.749 62.464 264.557 59.2H278.093C278.349 61.248 279.341 62.944 281.069 64.288C282.861 65.632 285.069 66.304 287.693 66.304C290.253 66.304 292.237 65.792 293.645 64.768C295.117 63.744 295.853 62.432 295.853 60.832C295.853 59.104 294.957 57.824 293.165 56.992C291.437 56.096 288.653 55.136 284.812 54.112C280.845 53.152 277.581 52.16 275.021 51.136C272.525 50.112 270.349 48.544 268.493 46.432C266.701 44.32 265.805 41.472 265.805 37.888C265.805 34.944 266.637 32.256 268.301 29.824C270.029 27.392 272.461 25.472 275.597 24.064C278.797 22.656 282.541 21.952 286.829 21.952C293.165 21.952 298.221 23.552 301.997 26.752C305.773 29.888 307.853 34.144 308.237 39.52H295.373C295.181 37.408 294.285 35.744 292.685 34.528C291.149 33.248 289.069 32.608 286.445 32.608C284.013 32.608 282.125 33.056 280.781 33.952C279.501 34.848 278.861 36.096 278.861 37.696C278.861 39.488 279.757 40.864 281.549 41.824C283.341 42.72 286.125 43.648 289.901 44.608C293.741 45.568 296.909 46.56 299.405 47.584C301.901 48.608 304.045 50.208 305.837 52.384C307.693 54.496 308.653 57.312 308.717 60.832C308.717 63.904 307.853 66.656 306.125 69.088C304.461 71.52 302.029 73.44 298.829 74.848C295.693 76.192 292.013 76.864 287.789 76.864ZM325.701 76.672C323.269 76.672 321.253 75.936 319.653 74.464C318.117 72.928 317.349 71.04 317.349 68.8C317.349 66.56 318.117 64.704 319.653 63.232C321.253 61.696 323.269 60.928 325.701 60.928C328.069 60.928 330.021 61.696 331.557 63.232C333.093 64.704 333.861 66.56 333.861 68.8C333.861 71.04 333.093 72.928 331.557 74.464C330.021 75.936 328.069 76.672 325.701 76.672Z" fill="black"/>
</svg>
